<svg width="119" height="110" viewBox="0 0 119 110" fill="none" xmlns="http://www.w3.org/2000/svg">
<path fill-rule="evenodd" clip-rule="evenodd" d="M20.9305 8.73305C25.7998 7.83759 30.7075 7.18917 35.5795 6.32646C36.5816 6.14976 39.6088 4.82854 40.3812 5.18576C41.464 5.68724 40.8375 9.23318 40.7149 10.0619C40.0843 14.3114 39.0712 18.4473 38.0563 22.6166C37.9385 23.101 37.512 26.1064 37.0835 26.2442C35.455 26.7682 33.3526 23.9492 32.4448 23.1015C28.4824 19.4007 22.9487 14.4383 20.0284 9.80103" fill="#FFC561"/>
<path d="M20.9305 8.73305C25.7998 7.83759 30.7075 7.18917 35.5795 6.32646C36.5816 6.14976 39.6088 4.82854 40.3812 5.18576C41.464 5.68724 40.8375 9.23318 40.7149 10.0619C40.0843 14.3114 39.0712 18.4473 38.0563 22.6166C37.9385 23.101 37.512 26.1064 37.0835 26.2442C35.455 26.7682 33.3526 23.9492 32.4448 23.1015C28.4824 19.4007 22.9487 14.4383 20.0284 9.80103" stroke="#FFC561" stroke-width="2.93433" stroke-miterlimit="1.5" stroke-linecap="round" stroke-linejoin="round"/>
<path d="M37.6806 14.6009C53.2037 15.5812 74.5066 23.1231 84.1672 36.2132C88.5501 42.1517 93.3333 60.5223 82.0414 62.8869C69.6691 65.4773 71.9582 45.2809 83.503 45.7908C93.711 46.2418 99.9533 55.4052 102.237 64.5276C106.273 80.6497 102.444 95.6356 91.9923 108.399" stroke="#FFC561" stroke-width="2.93433" stroke-miterlimit="1.5" stroke-linecap="round" stroke-linejoin="round"/>
</svg>
