<svg width="601" height="1141" viewBox="0 0 601 1141" fill="none" xmlns="http://www.w3.org/2000/svg">
<path d="M295.028 58.8345C303.829 58.8345 305.235 46.511 305.852 39.4513C307.907 15.9292 299.291 5.07005 274.88 5.00069C216.328 4.83433 160.073 34.81 172.806 100.029C182.518 149.769 197.94 196.365 204.702 247.15C213.851 315.859 223.591 387.746 209.838 456.475C193.59 537.676 107.359 629.564 19.3247 629.564C3.64906 629.564 1.1997 607.383 10.2126 598.23C31.8472 576.259 67.5826 561.063 96.4897 552.544C132.173 542.028 169.485 549.005 195.908 576.168C223.093 604.114 220.359 648.21 219.177 684.1C217.084 747.673 213.958 804.863 224.555 868.354C234.908 930.38 240.389 1025.05 289.889 1069.53C334.756 1109.84 385.913 1137.29 447.555 1135.95C518.78 1134.41 572.631 1037.81 596 980.2" stroke="#FFC561" stroke-width="10" stroke-linecap="round" stroke-linejoin="round"/>
</svg>
