<svg width="28" height="26" viewBox="0 0 28 26" fill="none" xmlns="http://www.w3.org/2000/svg">
<path fill-rule="evenodd" clip-rule="evenodd" d="M2.62106 8.97416C3.27876 6.63046 3.61054 4.17668 3.91449 1.79637C3.97821 1.28368 3.62263 0.80769 3.12166 0.77107C2.62033 0.697829 2.16184 1.06425 2.09812 1.54031C1.80553 3.84739 1.49243 6.22749 0.859262 8.46133C0.721936 8.93739 1.00464 9.45029 1.49096 9.59677C1.97691 9.74325 2.48337 9.45022 2.62106 8.97416Z" fill="#2F2D2E"/>
<path fill-rule="evenodd" clip-rule="evenodd" d="M11.945 16.0789C15.7942 12.307 19.1479 8.05909 23.1003 4.36044C23.4694 4.03085 23.4892 3.44493 23.1446 3.07873C22.7996 2.71252 22.2196 2.67605 21.8504 3.04225C17.8867 6.7409 14.522 10.9889 10.6615 14.7607C10.3011 15.1269 10.296 15.7127 10.6505 16.0789C11.0046 16.4085 11.5847 16.4451 11.945 16.0789Z" fill="#2F2D2E"/>
<path fill-rule="evenodd" clip-rule="evenodd" d="M26.7506 23.1468C24.5475 23.2567 22.3444 23.3664 20.141 23.4762C19.6364 23.4762 19.2467 23.9159 19.2713 24.4286C19.2962 24.9412 19.7257 25.3072 20.2307 25.3072C22.4375 25.1974 24.6438 25.0877 26.8502 24.9779C27.3548 24.9412 27.7419 24.5017 27.7144 23.989C27.687 23.513 27.2549 23.1102 26.7506 23.1468Z" fill="#2F2D2E"/>
</svg>
